<svg height="480pt" viewBox="0 0 480 480" width="480pt" xmlns="http://www.w3.org/2000/svg"><path d="m405.03125 141.871094 21.648438-43.296875-45.253907-45.253907-43.296875 21.648438c-15.835937-9.445312-32.960937-16.546875-50.832031-21.082031l-15.296875-45.886719h-64l-15.296875 45.886719c-17.871094 4.535156-34.996094 11.636719-50.832031 21.082031l-43.296875-21.648438-45.253907 45.253907 21.648438 43.296875c-9.445312 15.835937-16.546875 32.960937-21.082031 50.832031l-45.886719 15.296875v64l45.886719 15.296875c4.535156 17.871094 11.636719 34.996094 21.082031 50.832031l-21.648438 43.296875 45.253907 45.253907 43.296875-21.648438c15.835937 9.445312 32.960937 16.546875 50.832031 21.082031l15.296875 45.886719h64l15.296875-45.886719c17.871094-4.535156 34.996094-11.636719 50.832031-21.082031l43.296875 21.648438 45.253907-45.253907-21.648438-43.296875c9.445312-15.835937 16.546875-32.960937 21.082031-50.832031l45.886719-15.296875v-64l-45.886719-15.296875c-4.535156-17.871094-11.636719-34.996094-21.082031-50.832031zm-165.03125 258.128906c-88.367188 0-160-71.632812-160-160s71.632812-160 160-160 160 71.632812 160 160-71.632812 160-160 160zm0 0" fill="#ff5023"/><path d="m240 80c-88.367188 0-160 71.632812-160 160s71.632812 160 160 160 160-71.632812 160-160-71.632812-160-160-160zm112 184h-19.144531c-2.230469 8.667969-5.671875 16.980469-10.222657 24.6875l13.535157 13.535156-33.945313 33.945313-13.535156-13.535157c-7.707031 4.550782-16.019531 7.992188-24.6875 10.222657v19.144531h-48v-19.144531c-8.667969-2.230469-16.980469-5.671875-24.6875-10.222657l-13.535156 13.535157-33.945313-33.945313 13.535157-13.535156c-4.550782-7.707031-7.992188-16.019531-10.222657-24.6875h-19.144531v-48h19.144531c2.230469-8.667969 5.671875-16.980469 10.222657-24.6875l-13.535157-13.535156 33.945313-33.945313 13.535156 13.535157c7.707031-4.550782 16.019531-7.992188 24.6875-10.222657v-19.144531h48v19.144531c8.667969 2.230469 16.980469 5.671875 24.6875 10.222657l13.535156-13.535157 33.945313 33.945313-13.535157 13.535156c4.550782 7.707031 7.992188 16.019531 10.222657 24.6875h19.144531zm0 0" fill="#acabb1"/><path d="m322.632812 191.3125 13.535157-13.535156-33.945313-33.945313-13.535156 13.535157c-7.707031-4.550782-16.019531-7.992188-24.6875-10.222657v-19.144531h-48v19.144531c-8.667969 2.230469-16.980469 5.671875-24.6875 10.222657l-13.535156-13.535157-33.945313 33.945313 13.535157 13.535156c-4.550782 7.707031-7.992188 16.019531-10.222657 24.6875h-19.144531v48h19.144531c2.230469 8.667969 5.671875 16.980469 10.222657 24.6875l-13.535157 13.535156 33.945313 33.945313 13.535156-13.535157c7.707031 4.550782 16.019531 7.992188 24.6875 10.222657v19.144531h48v-19.144531c8.667969-2.230469 16.980469-5.671875 24.6875-10.222657l13.535156 13.535157 33.945313-33.945313-13.535157-13.535156c4.550782-7.707031 7.992188-16.019531 10.222657-24.6875h19.144531v-48h-19.144531c-2.230469-8.667969-5.671875-16.980469-10.222657-24.6875zm-50.632812 48.6875c8.835938 0 16 7.164062 16 16v24c0 8.835938-7.164062 16-16 16h-64c-8.835938 0-16-7.164062-16-16 0 8.835938 7.164062 16 16 16h32v-56h-32c-8.835938 0-16-7.164062-16-16v-24c0-8.835938 7.164062-16 16-16h64c8.835938 0 16 7.164062 16 16 0-8.835938-7.164062-16-16-16h-32v56zm0 0" fill="#ffda44"/><path d="m240 184h-32c-8.835938 0-16 7.164062-16 16v24c0 8.835938 7.164062 16 16 16h32zm0 0" fill="#ffda44"/><path d="m272 296c8.835938 0 16-7.164062 16-16v-24c0-8.835938-7.164062-16-16-16h-32v56zm0 0" fill="#ffda44"/><g fill="#231f20"><path d="m480 277.769531v-75.539062l-47.265625-15.75c-4.339844-15.667969-10.597656-30.742188-18.621094-44.878907l22.292969-44.59375-53.40625-53.414062-44.601562 22.292969c-14.136719-8.023438-29.210938-14.28125-44.878907-18.621094l-15.75-47.265625h-75.539062l-15.75 47.265625c-15.667969 4.339844-30.742188 10.597656-44.878907 18.621094l-44.601562-22.292969-53.40625 53.40625 22.292969 44.601562c-8.023438 14.136719-14.28125 29.210938-18.621094 44.878907l-47.265625 15.75v75.539062l47.265625 15.75c4.339844 15.667969 10.597656 30.742188 18.621094 44.878907l-22.292969 44.601562 53.40625 53.40625 44.601562-22.292969c14.140626 8.023438 29.214844 14.28125 44.886719 18.621094l15.742188 47.265625h75.539062l15.75-47.265625c15.667969-4.339844 30.742188-10.597656 44.878907-18.621094l44.59375 22.292969 53.40625-53.40625-22.285157-44.601562c8.023438-14.140626 14.28125-29.214844 18.621094-44.886719zm-61.601562 7.566407c-4.347657 17.121093-11.152344 33.523437-20.199219 48.695312l-2.246094 3.761719 21.03125 42.046875-37.144531 37.105468-42.046875-21.035156-3.761719 2.25c-15.167969 9.058594-31.570312 15.878906-48.695312 20.238282l-4.246094 1.074218-14.859375 44.527344h-52.460938l-14.859375-44.566406-4.246094-1.074219c-17.121093-4.347656-33.523437-11.152344-48.695312-20.199219l-3.761719-2.25-42.046875 21.035156-37.105468-37.105468 21.035156-42.046875-2.25-3.761719c-9.046875-15.171875-15.851563-31.574219-20.199219-48.695312l-1.074219-4.246094-44.566406-14.859375v-52.460938l44.566406-14.859375 1.074219-4.246094c4.347656-17.121093 11.152344-33.523437 20.199219-48.695312l2.25-3.761719-21.035156-42.046875 37.105468-37.105468 42.046875 21.035156 3.761719-2.25c15.171875-9.046875 31.574219-15.851563 48.695312-20.199219l4.246094-1.074219 14.859375-44.566406h52.460938l14.859375 44.566406 4.246094 1.074219c17.121093 4.347656 33.523437 11.152344 48.695312 20.199219l3.761719 2.25 42.046875-21.035156 37.105468 37.105468-21.035156 42.046875 2.25 3.761719c9.058594 15.167969 15.878906 31.570312 20.238282 48.695312l1.074218 4.246094 44.527344 14.859375v52.460938l-44.566406 14.859375zm0 0"/><path d="m272 192c4.417969 0 8 3.582031 8 8h16c0-13.253906-10.746094-24-24-24h-24v-16h-16v16h-24c-13.253906 0-24 10.746094-24 24v24c0 13.253906 10.746094 24 24 24h24v40h-24c-4.417969 0-8-3.582031-8-8h-16c0 13.253906 10.746094 24 24 24h24v16h16v-16h24c13.253906 0 24-10.746094 24-24v-24c0-13.253906-10.746094-24-24-24h-24v-40zm0 56c4.417969 0 8 3.582031 8 8v24c0 4.417969-3.582031 8-8 8h-24v-40zm-40-16h-24c-4.417969 0-8-3.582031-8-8v-24c0-4.417969 3.582031-8 8-8h24zm0 0"/><path d="m332.535156 192.71875 14.945313-14.941406-45.257813-45.257813-14.941406 14.945313c-4.917969-2.511719-10.027344-4.625-15.28125-6.320313v-21.144531h-64v21.144531c-5.253906 1.695313-10.363281 3.808594-15.28125 6.320313l-14.941406-14.945313-45.257813 45.257813 14.945313 14.941406c-2.511719 4.917969-4.625 10.027344-6.320313 15.28125h-21.144531v64h21.144531c1.695313 5.253906 3.808594 10.363281 6.320313 15.28125l-14.945313 14.941406 45.257813 45.257813 14.941406-14.945313c4.917969 2.511719 10.027344 4.625 15.28125 6.320313v21.144531h64v-21.144531c5.253906-1.695313 10.363281-3.808594 15.28125-6.320313l14.941406 14.945313 45.257813-45.257813-14.945313-14.941406c2.511719-4.917969 4.625-10.027344 6.320313-15.28125h21.144531v-64h-21.144531c-1.695313-5.253906-3.808594-10.363281-6.320313-15.28125zm11.464844 63.28125h-17.34375l-1.550781 6c-2.046875 7.941406-5.195313 15.558594-9.363281 22.625l-3.148438 5.34375 12.261719 12.253906-22.632813 22.632813-12.253906-12.261719-5.34375 3.148438c-7.066406 4.167968-14.683594 7.316406-22.625 9.363281l-6 1.550781v17.34375h-32v-17.34375l-6-1.550781c-7.941406-2.046875-15.558594-5.195313-22.625-9.363281l-5.34375-3.148438-12.253906 12.261719-22.632813-22.632813 12.261719-12.253906-3.148438-5.34375c-4.167968-7.066406-7.316406-14.683594-9.363281-22.625l-1.550781-6h-17.34375v-32h17.34375l1.550781-6c2.046875-7.941406 5.195313-15.558594 9.363281-22.625l3.148438-5.34375-12.261719-12.253906 22.632813-22.632813 12.253906 12.261719 5.34375-3.148438c7.066406-4.167968 14.683594-7.316406 22.625-9.363281l6-1.550781v-17.34375h32v17.34375l6 1.550781c7.941406 2.046875 15.558594 5.195313 22.625 9.363281l5.34375 3.148438 12.253906-12.261719 22.632813 22.632813-12.261719 12.253906 3.148438 5.34375c4.167968 7.066406 7.316406 14.683594 9.363281 22.625l1.550781 6h17.34375zm0 0"/><path d="m240 72c-92.785156 0-168 75.214844-168 168s75.214844 168 168 168 168-75.214844 168-168c-.101562-92.742188-75.257812-167.898438-168-168zm8 319.59375v-15.59375h-16v15.59375c-77.515625-4.15625-139.4375-66.078125-143.59375-143.59375h15.59375v-16h-15.59375c4.15625-77.515625 66.078125-139.4375 143.59375-143.59375v15.59375h16v-15.59375c77.515625 4.15625 139.4375 66.078125 143.59375 143.59375h-15.59375v16h15.59375c-4.15625 77.515625-66.078125 139.4375-143.59375 143.59375zm0 0"/></g></svg>