<svg height="480pt" viewBox="0 -8 480 480" width="480pt" xmlns="http://www.w3.org/2000/svg"><path d="m24 8h432c8.835938 0 16 7.164062 16 16v288c0 8.835938-7.164062 16-16 16h-432c-8.835938 0-16-7.164062-16-16v-288c0-8.835938 7.164062-16 16-16zm0 0" fill="#bebec2"/><path d="m40 40h400v256h-400zm0 0" fill="#55e4ea"/><path d="m80 80h88v32h-88zm0 0" fill="#2b7275"/><path d="m344 254.078125c-18.730469.011719-33.910156 15.191406-33.921875 33.921875-.023437 2.703125.328125 5.394531 1.042969 8h65.757812c.714844-2.605469 1.066406-5.296875 1.042969-8-.011719-18.730469-15.191406-33.910156-33.921875-33.921875zm0 0" fill="#ffda44"/><path d="m437.257812 20.121094-18.617187 18.613281c-3.386719-1.824219-6.953125-3.292969-10.640625-4.382813v-26.351562h-32v26.351562c-3.6875 1.089844-7.253906 2.558594-10.640625 4.382813l-18.617187-18.613281-22.621094 22.621094 18.613281 18.617187c-1.824219 3.386719-3.292969 6.953125-4.382813 10.640625h-26.351562v32h26.351562c1.089844 3.6875 2.558594 7.253906 4.382813 10.640625l-18.613281 18.617187 22.621094 22.621094 18.617187-18.613281c3.386719 1.824219 6.953125 3.292969 10.640625 4.382813v26.351562h32v-26.351562c3.6875-1.089844 7.253906-2.558594 10.640625-4.382813l18.617187 18.613281 22.621094-22.621094-18.613281-18.617187c1.824219-3.386719 3.292969-6.953125 4.382813-10.640625h26.351562v-32h-26.351562c-1.089844-3.6875-2.558594-7.253906-4.382813-10.640625l18.613281-18.617187zm-45.257812 91.878906c-13.253906 0-24-10.746094-24-24s10.746094-24 24-24 24 10.746094 24 24-10.746094 24-24 24zm0 0" fill="#ff5023"/><path d="m416 88c0 13.253906-10.746094 24-24 24s-24-10.746094-24-24 10.746094-24 24-24 24 10.746094 24 24zm0 0" fill="#ffda44"/><path d="m310.078125 288c0-18.734375 15.1875-33.921875 33.921875-33.921875s33.921875 15.1875 33.921875 33.921875c.023437 2.703125-.328125 5.394531-1.042969 8h63.121094v-32h-20.558594c-1.375-4.261719-3.085937-8.410156-5.121094-12.398438l14.558594-14.480468-34-34-14.480468 14.558594c-3.988282-2.035157-8.136719-3.746094-12.398438-5.121094v-20.558594h-48v20.558594c-4.261719 1.375-8.410156 3.085937-12.398438 5.121094l-14.480468-14.558594-34 34 14.558594 14.480468c-2.035157 3.988282-3.746094 8.136719-5.121094 12.398438h-20.558594v32h63.121094c-.714844-2.605469-1.066406-5.296875-1.042969-8zm0 0" fill="#ff5023"/><path d="m264.96875 135.03125c-8.097656-8.09375-20.785156-9.34375-30.304688-2.980469-9.519531 6.363281-13.21875 18.566407-8.835937 29.144531 4.382813 10.574219 15.628906 16.582032 26.859375 14.347657s19.316406-12.09375 19.3125-23.542969c.007812-6.367188-2.523438-12.472656-7.03125-16.96875zm0 0" fill="#ffda44"/><g fill="#231f20"><path d="m451.328125 64-.40625-.984375 20.277344-20.273437-33.941407-33.941407-20.273437 20.277344-.984375-.40625v-28.671875h-48v28.671875l-.984375.40625-20.273437-20.277344-33.941407 33.941407 20.269531 20.273437-.398437.984375h-28.671875v48h28.671875l.40625.984375-20.277344 20.273437 33.941407 33.941407 20.273437-20.269531.984375.40625v28.664062h48v-28.671875l.984375-.40625 20.273437 20.277344 33.941407-33.941407-20.269531-20.273437.398437-.984375h28.671875v-48zm12.671875 32h-24.320312l-1.695313 5.71875c-.933594 3.160156-2.191406 6.214844-3.753906 9.113281l-2.847657 5.246094 17.183594 17.179687-11.308594 11.308594-17.179687-17.183594-5.246094 2.847657c-2.898437 1.5625-5.953125 2.820312-9.113281 3.753906l-5.71875 1.695313v24.320312h-16v-24.320312l-5.71875-1.695313c-3.160156-.933594-6.214844-2.191406-9.113281-3.753906l-5.246094-2.847657-17.179687 17.183594-11.308594-11.308594 17.183594-17.179687-2.847657-5.246094c-1.5625-2.898437-2.820312-5.953125-3.753906-9.113281l-1.695313-5.71875h-24.320312v-16h24.320312l1.695313-5.71875c.933594-3.160156 2.191406-6.214844 3.753906-9.113281l2.847657-5.246094-17.183594-17.179687 11.308594-11.308594 17.179687 17.183594 5.246094-2.847657c2.898437-1.5625 5.953125-2.820312 9.113281-3.753906l5.71875-1.695313v-24.320312h16v24.320312l5.71875 1.695313c3.160156.933594 6.214844 2.191406 9.113281 3.753906l5.246094 2.847657 17.179687-17.183594 11.308594 11.308594-17.183594 17.179687 2.847657 5.246094c1.5625 2.898437 2.820312 5.953125 3.753906 9.113281l1.695313 5.71875h24.320312zm0 0"/><path d="m392 56c-17.671875 0-32 14.328125-32 32s14.328125 32 32 32 32-14.328125 32-32-14.328125-32-32-32zm0 48c-8.835938 0-16-7.164062-16-16s7.164062-16 16-16 16 7.164062 16 16-7.164062 16-16 16zm0 0"/><path d="m464 320h-448v-304h296v-16h-296c-8.835938 0-16 7.164062-16 16v304c0 8.835938 7.164062 16 16 16h184v80h-80v48h240v-48h-80v-80h184c8.835938 0 16-7.164062 16-16v-152h-16zm-120 112v16h-208v-16zm-80-16h-48v-80h48zm0 0"/><path d="m32 79.335938h16v-31.335938h31.335938v-16h-47.335938zm0 0"/><path d="m312 184v22.929688c-.886719.351562-1.785156.726562-2.6875 1.117187l-16.175781-16.253906-45.34375 45.34375 16.253906 16.175781c-.390625.902344-.800781 1.800781-1.117187 2.6875h-22.929688v32h-208v16h416v-48h-22.929688c-.351562-.886719-.726562-1.785156-1.117187-2.6875l16.253906-16.175781-45.34375-45.34375-16.175781 16.253906c-.902344-.390625-1.800781-.800781-2.6875-1.117187v-22.929688zm6.078125 104c0-14.316406 11.605469-25.921875 25.921875-25.921875s25.921875 11.605469 25.921875 25.921875zm58.722656-63.199219 5.167969 2.589844 12.902344-12.976563 22.65625 22.65625-12.976563 12.90625 2.59375 5.167969c1.835938 3.605469 3.390625 7.351563 4.648438 11.199219l1.757812 5.601562h18.449219v16h-46.078125c0-23.152343-18.769531-41.921874-41.921875-41.921874s-41.921875 18.769531-41.921875 41.921874h-46.078125v-15.945312h18.398438l1.761718-5.601562c1.257813-3.847657 2.8125-7.589844 4.648438-11.199219l2.589844-5.167969-12.972657-12.902344 22.652344-22.65625 12.90625 12.976563 5.214844-2.648438c3.609375-1.835937 7.351562-3.390625 11.199219-4.648437l5.601562-1.761719v-18.390625h32v18.398438l5.601562 1.761718c3.847657 1.253906 7.589844 2.804688 11.199219 4.640625zm0 0"/><path d="m275.464844 135.847656 12.136718-12.136718-11.3125-11.3125-12.136718 12.136718c-2.542969-1.511718-5.289063-2.65625-8.152344-3.398437v-17.136719h-16v17.136719c-2.863281.742187-5.609375 1.886719-8.152344 3.398437l-12.136718-12.136718-11.3125 11.3125 12.136718 12.136718c-1.511718 2.542969-2.65625 5.289063-3.398437 8.152344h-17.136719v16h17.136719c.742187 2.863281 1.886719 5.609375 3.398437 8.152344l-12.136718 12.136718 11.3125 11.3125 12.136718-12.136718c2.542969 1.511718 5.289063 2.65625 8.152344 3.398437v17.136719h16v-17.136719c2.863281-.742187 5.609375-1.886719 8.152344-3.398437l12.136718 12.136718 11.3125-11.3125-12.136718-12.136718c1.511718-2.542969 2.65625-5.289063 3.398437-8.152344h17.136719v-16h-17.136719c-.742187-2.863281-1.886719-5.609375-3.398437-8.152344zm0 0"/><path d="m184 64h-120v64h120zm-16 48h-88v-32h88zm0 0"/><path d="m64 144h120v16h-120zm0 0"/><path d="m64 176h120v16h-120zm0 0"/><path d="m64 208h120v16h-120zm0 0"/><path d="m64 240h120v16h-120zm0 0"/></g><path d="m216 336h48v80h-48zm0 0" fill="#565659"/><path d="m200 432h-64v16h208v-16zm0 0" fill="#565659"/></svg>